<svg xmlns="http://www.w3.org/2000/svg" xmlns:xlink="http://www.w3.org/1999/xlink" viewBox="0 0 1200 750"><defs><clipPath id="clip-path"><path d="M360.34,162H238a13.77,13.77,0,0,0-14,13.51V737a13.77,13.77,0,0,0,14,13.51h948A13.77,13.77,0,0,0,1200,737V175.51A13.77,13.77,0,0,0,1186,162Z" style="fill:none"/></clipPath></defs><title>Artboard 10</title><g id="template"><rect width="1200" height="750" style="fill:#f4d345"/><g style="clip-path:url(#clip-path)"><rect x="120.19" y="101.22" width="1094.13" height="665.56" style="fill:#f4d345"/><path d="M1711.09,740.05,1298.53,883.5a15.44,15.44,0,0,1-16-3.65l-414.37-420a14.31,14.31,0,0,1,5.8-23.68l412.56-143.45a15.44,15.44,0,0,1,16,3.65l414.36,420A14.31,14.31,0,0,1,1711.09,740.05Z" style="fill:#608cb8"/><polygon points="892.84 338.11 892.84 446.67 1243.16 801.79 1594.26 696.73 1172.74 279.99 892.84 338.11" style="fill:#fffcf3"/><path d="M1683.19,595,1292.63,730.8a15.46,15.46,0,0,1-16-3.65L883.93,329.08a14.3,14.3,0,0,1,5.8-23.68l390.56-135.81a15.44,15.44,0,0,1,16,3.65L1689,571.31A14.3,14.3,0,0,1,1683.19,595Z" style="fill:#608cb8"/><polygon points="1006.59 1016.53 607.48 1154.9 213 754 612.12 615.63 1006.59 1016.53" style="fill:#fffcf3"/><path d="M882.09,550.4A5.69,5.69,0,0,0,876.2,549l-90.64,31-13.12-6.26v14.65h0A5.23,5.23,0,0,0,774,592l416.16,421.86,111.54-38.14Z" style="fill:#b34949"/><path d="M1301.68,960.24l-111.54,38.14L774,576.52a5.29,5.29,0,0,1,2.18-8.77l100-34.21a5.71,5.71,0,0,1,5.89,1.36Z" style="fill:#ce5b5b"/><path d="M624,549.1a2.62,2.62,0,0,0-3.72,3.37l9.58,14.12,8.63-8.31Z" style="fill:#434244"/><polygon points="671.7 579.35 638.47 558.28 629.84 566.59 652.17 599.5 671.7 579.35" style="fill:#f7e8cb"/><path d="M654.09,601.91,1047,1000.22a15.22,15.22,0,0,0,15.66,3.64h0L651.12,586.63A13.85,13.85,0,0,0,654.09,601.91Z" style="fill:#2b7a60"/><path d="M1069.83,981.81,676.91,583.5c-5.34-5.41-11.46-6.84-17-5h0c-.21.07-.4.16-.61.24l411.9,417.55C1073.62,991.27,1073,985,1069.83,981.81Z" style="fill:#51b594"/><path d="M1071.23,996.32,659.33,578.77a14.45,14.45,0,0,0-8.21,7.86l411.58,417.22A14.47,14.47,0,0,0,1071.23,996.32Z" style="fill:#3e977d"/><polygon points="856.31 553.21 876.19 546.23 881.41 551.45 861.7 558.61 856.31 553.21" style="fill:#e27979"/><polygon points="878.35 575.45 898.23 568.47 903.45 573.68 883.74 580.85 878.35 575.45" style="fill:#e27979"/><polygon points="900.38 597.68 920.26 590.71 925.49 595.92 905.77 603.09 900.38 597.68" style="fill:#e27979"/><polygon points="922.41 619.92 942.3 612.95 947.52 618.16 927.8 625.32 922.41 619.92" style="fill:#e27979"/><polygon points="944.45 642.16 964.33 635.19 969.55 640.4 949.84 647.56 944.45 642.16" style="fill:#e27979"/><polygon points="966.49 664.4 986.37 657.42 991.59 662.64 971.88 669.8 966.49 664.4" style="fill:#e27979"/><polygon points="988.52 686.64 1008.4 679.66 1013.63 684.88 993.91 692.04 988.52 686.64" style="fill:#e27979"/><polygon points="1010.55 708.88 1030.44 701.9 1035.66 707.12 1015.95 714.28 1010.55 708.88" style="fill:#e27979"/><polygon points="1032.59 731.12 1052.47 724.14 1057.69 729.36 1037.98 736.52 1032.59 731.12" style="fill:#e27979"/><polygon points="1054.63 753.36 1074.51 746.38 1079.73 751.6 1060.02 758.76 1054.63 753.36" style="fill:#e27979"/><path d="M710.36,516.65a11.42,11.42,0,0,1-12.4-3L660.39,473a12.31,12.31,0,0,1-3.07-10.46h-.19v34.1l.18.08a12.32,12.32,0,0,0,3.08,10.37L698,547.73a11.38,11.38,0,0,0,12.4,3l38.08-14.26V502.39Z" style="fill:#b34949"/><path d="M837.36,458.37a12.21,12.21,0,0,1-7.53,13.55L752.1,501v34.09L829.83,506a11.94,11.94,0,0,0,7.53-9.36h.2V458.36Z" style="fill:#2b7a60"/><path d="M701.34,439.51l-36.48,13.66a11.94,11.94,0,0,0-7.54,9.37l63.59-1.47Z" style="fill:#ce5b5b"/><path d="M660.39,473,698,513.64a11.42,11.42,0,0,0,12.4,3l38.08-14.26V496a12.12,12.12,0,0,0-3.18-8.16l-24.35-26.81-63.59,1.47A12.31,12.31,0,0,0,660.39,473Z" style="fill:#ce5b5b"/><path d="M837.36,458.37a12.1,12.1,0,0,0-3.07-6.28l-37.57-40.64a11.36,11.36,0,0,0-12.39-3L705,438.15,725.67,461,748,485.56A15.6,15.6,0,0,1,752.1,496v5l77.73-29.1A12.21,12.21,0,0,0,837.36,458.37Z" style="fill:#3e977d"/><path d="M748,485.56,725.67,461,705,438.15l-1.17.44-2.45.92,19.57,21.56,24.35,26.81a12.12,12.12,0,0,1,3.18,8.16v40.44l1.14-.42,2.52-.95V496A15.6,15.6,0,0,0,748,485.56Z" style="fill:#fffcf3"/><path d="M1195.24,688.3c-16.6-17.11-34.77-32.82-52.31-49s-34.91-32.65-52.21-49.14c-34.3-32.69-68.09-65.88-103-98-19.91-18.34-40.6-35.83-61.66-52.93-1.31-1.07-3.2.68-1.91,1.85,70.48,64.07,137.16,131.85,203.8,199.59,18.88,19.19,37.54,39,58.42,56.18C1192.46,701.84,1200.81,694,1195.24,688.3Z" style="fill:#f7f1e2"/><path d="M1189.33,653.66c-9.85-12.85-22.84-23.85-34.63-35s-24-22.26-36.18-33.14q-37.21-33.06-76-64.37c-.88-.71-2.13.43-1.28,1.23q35.57,33.71,70,68.48,16.82,17,33.47,34.11c11.54,11.81,22.44,25.16,35.38,35.57C1184.8,664.3,1193.59,659.22,1189.33,653.66Z" style="fill:#f7f1e2"/></g></g><g id="text"><path d="M190.32,457.52v.84a1.8,1.8,0,0,1,1.7-.93,2.06,2.06,0,0,1,1.1.29,1.71,1.71,0,0,1,.71.85,2,2,0,0,1,.76-.84,2.15,2.15,0,0,1,1.13-.3,1.94,1.94,0,0,1,1.43.56,2.15,2.15,0,0,1,.57,1.61v3h-.65v-2.93a1.8,1.8,0,0,0-.41-1.29,1.45,1.45,0,0,0-1.11-.44,1.47,1.47,0,0,0-1.12.44,1.85,1.85,0,0,0-.41,1.29v2.93h-.64v-2.93a1.85,1.85,0,0,0-.41-1.29,1.48,1.48,0,0,0-1.12-.44,1.47,1.47,0,0,0-1.12.44,1.85,1.85,0,0,0-.41,1.29v2.93h-.65v-5.13Z" style="fill:#f4d345"/><path d="M201.33,462.74a2.33,2.33,0,0,1-1.79-.73,2.69,2.69,0,0,1-.69-1.92,2.63,2.63,0,0,1,.73-1.93,2.66,2.66,0,0,1,3.66,0,2.61,2.61,0,0,1,.73,1.92,2.58,2.58,0,0,1-.77,1.92A2.61,2.61,0,0,1,201.33,462.74Zm0-.53a1.88,1.88,0,0,0,1.38-.57,2.08,2.08,0,0,0,.59-1.56,2.14,2.14,0,0,0-.56-1.56,1.81,1.81,0,0,0-1.35-.57,1.74,1.74,0,0,0-1.33.57,2.14,2.14,0,0,0-.54,1.56,2.25,2.25,0,0,0,.51,1.57A1.65,1.65,0,0,0,201.32,462.21Z" style="fill:#f4d345"/><path d="M205.8,457.52v.85a1.57,1.57,0,0,1,1.59-.94v.68h-.19a1.38,1.38,0,0,0-1,.37,1.76,1.76,0,0,0-.36,1.26v2.91h-.66v-5.13Z" style="fill:#f4d345"/><path d="M210.69,462.74a2.31,2.31,0,0,1-1.78-.73,3,3,0,0,1,0-3.86,2.42,2.42,0,0,1,1.81-.72,2.3,2.3,0,0,1,2.43,2.38,2.78,2.78,0,0,1,0,.51H208.9a2,2,0,0,0,.53,1.39,1.69,1.69,0,0,0,1.26.5,1.81,1.81,0,0,0,1-.27,1.43,1.43,0,0,0,.58-.71h.7a2.31,2.31,0,0,1-2.29,1.51Zm1.79-2.94a1.79,1.79,0,0,0-.51-1.34,1.82,1.82,0,0,0-2.52,0,1.92,1.92,0,0,0-.55,1.35Z" style="fill:#f4d345"/></g></svg>